<?xml version="1.0"?>
<svg xmlns="http://www.w3.org/2000/svg" id="Layer_1" data-name="Layer 1" viewBox="0 0 512 512" width="512" height="512"><path d="M498.54,372H485V108.29C485,82.926,464.814,62,439.45,62H72.56C47.2,62,27,82.926,27,108.29V372H13.46C10.146,372,7,374.807,7,378.12v25.59C7,429.074,28.1,450,53.46,450H458.54C483.9,450,505,429.074,505,403.71V378.12C505,374.807,501.854,372,498.54,372ZM493,403.71c0,18.748-15.712,34.29-34.46,34.29H53.46C34.712,438,19,422.458,19,403.71V384H173.561l26.01,20.544a6.191,6.191,0,0,0,3.7,1.456H308.73a6.191,6.191,0,0,0,3.7-1.456L338.439,384h63.894a6,6,0,1,0,0-12H336.37a6.191,6.191,0,0,0-3.7,1.456L306.661,394H205.339l-26.01-20.544a6.191,6.191,0,0,0-3.7-1.456H39V108.29C39,89.542,53.812,74,72.56,74H439.45C458.2,74,473,89.542,473,108.29V372H431.667a6,6,0,1,0,0,12H493Z"/><path d="M449,333.07V109.29a6.3,6.3,0,0,0-6.05-6.29H155.333a6,6,0,1,0,0,12H437V327H75V115h50a6,6,0,0,0,0-12H69.05A6.3,6.3,0,0,0,63,109.29V333.07A5.984,5.984,0,0,0,69.05,339h373.9A5.984,5.984,0,0,0,449,333.07Z"/><path d="M101,343a6,6,0,0,0-6,6v12a6,6,0,0,0,12,0V349A6,6,0,0,0,101,343Z"/><path d="M121,343a6,6,0,0,0-6,6v12a6,6,0,0,0,12,0V349A6,6,0,0,0,121,343Z"/><path d="M141,343a6,6,0,0,0-6,6v12a6,6,0,0,0,12,0V349A6,6,0,0,0,141,343Z"/><path d="M366.527,147.648l-27.75,27.76a6,6,0,1,0,8.486,8.484l27.75-27.76a6,6,0,0,0-8.486-8.484Z"/><path d="M390.878,152.517l-47.24,47.23a6,6,0,1,0,8.484,8.486L399.362,161a6,6,0,1,0-8.484-8.486Z"/><path d="M367.987,204.617a6,6,0,0,0,8.486,8.486l27.75-27.75a6,6,0,0,0-8.486-8.486Z"/></svg>
